<svg width="130" height="72" viewBox="0 0 130 72" fill="none" xmlns="http://www.w3.org/2000/svg">
<path d="M11.2068 62.2977L10.3912 65.5311H10.3463L9.52427 62.2977L7.33436 54.5801H0.21875V70.8622H4.66279V64.3506L4.56646 59.0965H4.63711L8.16922 70.8622H12.2215L15.7986 59.0965H15.85L15.7536 64.3506V70.8622H20.1977V54.5801H13.4032L11.2068 62.2977Z" fill="white"/>
<path d="M51.2558 61.637L51.3586 64.8446H51.3329L50.2668 62.6506L45.8228 54.5801H40.3191V70.8622H44.7118V63.8053L44.6154 60.5977H44.6668L45.7008 62.7917L50.1448 70.8622H55.6742V54.5801H51.2558V61.637Z" fill="white"/>
<path d="M80.8855 54.5801H75.8442V70.8622H88.6369V67.0836H80.8855V54.5801Z" fill="white"/>
<path d="M95.3278 54.5801H90.293V70.8622H95.3278V54.5801Z" fill="white"/>
<path d="M96.9092 58.3523H102.143V70.8622H107.178V58.3523H112.361V54.5801H96.9092V58.3523Z" fill="white"/>
<path d="M124.293 54.5801V60.7709H119.007V54.5801H113.966V70.8622H119.007V64.5495H124.293V70.8622H129.353V54.5801H124.293Z" fill="white"/>
<path d="M30.1589 54.6768C25.6506 54.6768 21.9836 58.3399 21.9836 62.8435C21.9836 67.3471 25.6506 71.0102 30.1589 71.0102C34.6671 71.0102 38.3341 67.3535 38.3341 62.8499C38.3341 58.3463 34.6671 54.6768 30.1589 54.6768ZM30.1589 66.6157C28.0781 66.6157 26.3827 64.9221 26.3827 62.8435C26.3827 60.7649 28.0781 59.0713 30.1589 59.0713C32.2396 59.0713 33.935 60.7649 33.935 62.8435C33.935 64.9221 32.2396 66.6157 30.1589 66.6157Z" fill="white"/>
<path d="M65.6137 54.6768C61.1055 54.6768 57.4385 58.3399 57.4385 62.8435C57.4385 67.3471 61.1055 71.0102 65.6137 71.0102C70.122 71.0102 73.789 67.3471 73.789 62.8435C73.789 58.3463 70.122 54.6768 65.6137 54.6768ZM65.6137 66.6157C63.533 66.6157 61.8376 64.9221 61.8376 62.8435C61.8376 60.7649 63.533 59.0713 65.6137 59.0713C67.6945 59.0713 69.3899 60.7649 69.3899 62.8435C69.3899 64.9221 67.6945 66.6157 65.6137 66.6157Z" fill="white"/>
<path d="M63.7203 7.64068L59.3276 0.0449072L59.3405 0.0192459H59.3148L59.3019 0L59.2891 0.0192459H50.4909L32.9395 30.4216H32.9138L32.9267 30.4408L32.9138 30.4665H32.9395L37.3258 38.0494L37.3322 38.0622H46.1111L46.1239 38.0879L46.1368 38.0622H46.1625L46.1496 38.043L63.7139 7.65351L63.7203 7.64068Z" fill="white"/>
<path d="M59.3018 38.0436H68.0872L63.7009 30.4414H54.9092L59.3018 38.0436Z" fill="white"/>
<path d="M85.683 7.64068L81.2903 0.0384917L81.3032 0.0192459H81.2775L81.2647 0L81.2518 0.0192459H72.4536L54.8958 30.4216H54.8701L54.883 30.4408L54.8701 30.4665H54.8958L59.2821 38.0558L59.2885 38.0687H68.0738L68.0867 38.0943L68.0995 38.0687H68.1252L68.1123 38.043L85.6766 7.65992L85.683 7.64068ZM54.9472 30.4665H55.8206H63.6811L68.0481 38.0238H59.3142L54.9472 30.4665Z" fill="white"/>
<path d="M96.6593 26.6432L92.2666 19.041L92.2795 19.0218H92.2538L92.2409 18.9961L92.2281 19.0218H83.4299L76.8602 30.4218H76.8345L76.8473 30.4411L76.8345 30.4667H76.8602L81.2464 38.0497L81.2528 38.0625H90.0317L90.0446 38.0882L90.0574 38.0625H90.0831L90.0703 38.0433L96.6529 26.656L96.6593 26.6432Z" fill="white"/>
</svg>
