<svg width="75" height="76" viewBox="0 0 75 76" fill="none" xmlns="http://www.w3.org/2000/svg">
<path d="M19.7244 12.2569V32.7708L37.6435 43.0277L55.5693 32.7708V12.2569L37.6435 2L19.7244 12.2569Z" stroke="#3B3E48" stroke-width="3" stroke-miterlimit="10"/>
<path d="M19.7244 12.2832L37.6435 22.5401L55.5693 12.2832" stroke="#3B3E48" stroke-width="3" stroke-miterlimit="10"/>
<path d="M37.6426 42.9745V22.5537" stroke="#3B3E48" stroke-width="3" stroke-miterlimit="10"/>
<path d="M37.661 43.0479V63.5618L55.5801 73.8187L73.5059 63.5618V43.0479L55.5801 32.791L37.661 43.0479Z" stroke="#3B3E48" stroke-width="3" stroke-miterlimit="10"/>
<path d="M37.661 43.0742L55.5801 53.3311L73.5059 43.0742" stroke="#3B3E48" stroke-width="3" stroke-miterlimit="10"/>
<path d="M55.5789 73.7723V53.3516" stroke="#3B3E48" stroke-width="3" stroke-miterlimit="10"/>
<path d="M1.87988 43.0474V63.5613L19.8057 73.8182L37.7248 63.5613V43.0474L19.8057 32.7905L1.87988 43.0474Z" stroke="#3B3E48" stroke-width="3" stroke-miterlimit="10"/>
<path d="M1.87988 43.0742L19.8057 53.3311L37.7248 43.0742" stroke="#3B3E48" stroke-width="3" stroke-miterlimit="10"/>
<path d="M19.8066 73.7714V53.3506" stroke="#3B3E48" stroke-width="3" stroke-miterlimit="10"/>
</svg>
