<svg width="74" height="84" viewBox="0 0 74 84" fill="none" xmlns="http://www.w3.org/2000/svg">
<path d="M20.0194 26.9396V21.9687L11.1873 16.916L2.34937 21.9687V62.2093L11.1873 67.2503L15.6004 65.0573" stroke="#3B3E48" stroke-width="3" stroke-miterlimit="10"/>
<path d="M42.1931 34.3253V29.3545L51.0311 24.2959L59.8632 29.3545V69.5892L51.0311 74.636L46.618 72.443" stroke="#3B3E48" stroke-width="3" stroke-miterlimit="10"/>
<path d="M54.728 26.4772V22.0444L63.566 16.9858L72.3981 22.0444V62.2791L63.566 67.3201L59.6013 65.9224" stroke="#3B3E48" stroke-width="3" stroke-miterlimit="10"/>
<path d="M28.5791 36.9512V77.1858L37.4171 82.2269L46.2491 77.2969V36.9512L37.4171 31.8926L28.5791 36.9512Z" stroke="#3B3E48" stroke-width="3" stroke-miterlimit="10"/>
<path d="M33.5897 19.2024V14.2842L24.7517 9.22559L15.9197 14.2842V19.4948" stroke="#3B3E48" stroke-width="3" stroke-miterlimit="10"/>
<path d="M46.1722 26.8108V21.8984L37.3343 16.8398L28.5022 21.8984V27.1032" stroke="#3B3E48" stroke-width="3" stroke-miterlimit="10"/>
<path d="M46.1722 11.9158V7.0034L37.3343 1.94482L28.5022 7.0034V11.4187" stroke="#3B3E48" stroke-width="3" stroke-miterlimit="10"/>
<path d="M59.3588 19.384V14.4717L50.5208 9.41309L41.6829 14.4717V19.6764" stroke="#3B3E48" stroke-width="3" stroke-miterlimit="10"/>
<path d="M33.27 34.4894V29.5185L24.4379 24.4658L15.6 29.5185V69.7591L24.4379 74.8001L28.851 72.6071" stroke="#3B3E48" stroke-width="3" stroke-miterlimit="10"/>
</svg>
