<svg width="129" height="72" viewBox="0 0 129 72" fill="none" xmlns="http://www.w3.org/2000/svg">
<path d="M10.9767 62.2977L10.1619 65.5311H10.117L9.29584 62.2977L7.1082 54.5801H0V70.8622H4.43942V64.3506L4.34319 59.0965H4.41376L7.9422 70.8622H11.9903L15.5636 59.0965H15.615L15.5187 64.3506V70.8622H19.9581V54.5801H13.1707L10.9767 62.2977Z" fill="#2F323C"/>
<path d="M50.9827 61.637L51.0854 64.8446H51.0597L49.9947 62.6506L45.5553 54.5801H40.0574V70.8622H44.4455V63.8053L44.3492 60.5977H44.4006L45.4334 62.7917L49.8729 70.8622H55.3965V54.5801H50.9827V61.637Z" fill="#2F323C"/>
<path d="M80.5832 54.5801H75.5471V70.8622H88.3265V67.0836H80.5832V54.5801Z" fill="#2F323C"/>
<path d="M95.0113 54.5801H89.9817V70.8622H95.0113V54.5801Z" fill="#2F323C"/>
<path d="M96.5894 58.3523H101.818V70.8622H106.847V58.3523H112.025V54.5801H96.5894V58.3523Z" fill="#2F323C"/>
<path d="M123.944 54.5801V60.7709H118.664V54.5801H113.628V70.8622H118.664V64.5495H123.944V70.8622H129V54.5801H123.944Z" fill="#2F323C"/>
<path d="M29.9084 54.6768C25.4049 54.6768 21.7417 58.3399 21.7417 62.8435C21.7417 67.3471 25.4049 71.0102 29.9084 71.0102C34.412 71.0102 38.0752 67.3535 38.0752 62.8499C38.0752 58.3463 34.412 54.6768 29.9084 54.6768ZM29.9084 66.6157C27.8299 66.6157 26.1362 64.9221 26.1362 62.8435C26.1362 60.7649 27.8299 59.0713 29.9084 59.0713C31.987 59.0713 33.6807 60.7649 33.6807 62.8435C33.6807 64.9221 31.987 66.6157 29.9084 66.6157Z" fill="#2F323C"/>
<path d="M65.3274 54.6768C60.8238 54.6768 57.1606 58.3399 57.1606 62.8435C57.1606 67.3471 60.8238 71.0102 65.3274 71.0102C69.831 71.0102 73.4941 67.3471 73.4941 62.8435C73.4941 58.3463 69.831 54.6768 65.3274 54.6768ZM65.3274 66.6157C63.2488 66.6157 61.5552 64.9221 61.5552 62.8435C61.5552 60.7649 63.2488 59.0713 65.3274 59.0713C67.406 59.0713 69.0996 60.7649 69.0996 62.8435C69.0996 64.9221 67.406 66.6157 65.3274 66.6157Z" fill="#2F323C"/>
<path d="M63.4348 7.64068L59.0467 0.0449072L59.0595 0.0192459H59.0339L59.0211 0L59.0082 0.0192459H50.2192L32.6861 30.4216H32.6604L32.6732 30.4408L32.6604 30.4665H32.6861L37.0677 38.0494L37.0742 38.0622H45.8439L45.8568 38.0879L45.8696 38.0622H45.8953L45.8824 38.043L63.4284 7.65351L63.4348 7.64068Z" fill="#2F323C"/>
<path d="M59.0212 38.0441H67.7973L63.4157 30.4419H54.6331L59.0212 38.0441Z" fill="#2F323C"/>
<path d="M85.3756 7.64068L80.9875 0.0384917L81.0003 0.0192459H80.9746L80.9618 0L80.949 0.0192459H72.1599L54.6204 30.4216H54.5947L54.6076 30.4408L54.5947 30.4665H54.6204L59.0021 38.0558L59.0085 38.0687H67.7847L67.7975 38.0943L67.8103 38.0687H67.836L67.8232 38.043L85.3691 7.65992L85.3756 7.64068ZM54.6717 30.4665H55.5442H63.3966L67.759 38.0238H59.0341L54.6717 30.4665Z" fill="#2F323C"/>
<path d="M96.3393 26.6427L91.9512 19.0405L91.9641 19.0213H91.9384L91.9256 18.9956L91.9127 19.0213H83.1237L76.5608 30.4213H76.5352L76.548 30.4406L76.5352 30.4662H76.5608L80.9425 38.0492L80.9489 38.062H89.7187L89.7315 38.0877L89.7444 38.062H89.77L89.7572 38.0428L96.3329 26.6555L96.3393 26.6427Z" fill="#2F323C"/>
</svg>
